<svg width="200" height="200" viewBox="0 0 200 200" fill="none" xmlns="http://www.w3.org/2000/svg">
  <!-- Background Circle -->
  <circle cx="100" cy="100" r="95" fill="#4F46E5"/>
  
  <!-- Inner Circle -->
  <circle cx="100" cy="100" r="75" fill="#6366F1"/>
  
  <!-- Letter G -->
  <path d="M85 70 C70 70, 60 80, 60 95 C60 110, 70 120, 85 120 L100 120 L100 105 L85 105 C78 105, 75 102, 75 95 C75 88, 78 85, 85 85 L110 85 L110 120 C110 128, 115 130, 120 130 L130 130 L130 70 Z" fill="white"/>
  
  <!-- Briefcase Icon -->
  <rect x="105" y="95" width="30" height="20" rx="2" fill="white" opacity="0.9"/>
  <rect x="115" y="90" width="10" height="5" rx="1" fill="white" opacity="0.9"/>
  
  <!-- Flow Arrow -->
  <path d="M65 140 L95 140 L95 155 L105 145 L95 135 L95 150 L65 150 Z" fill="#FCD34D" opacity="0.9"/>
  
  <!-- Dots for "Flow" effect -->
  <circle cx="45" cy="145" r="3" fill="#FCD34D"/>
  <circle cx="55" cy="145" r="3" fill="#FCD34D"/>
</svg>